<?xml version="1.0" encoding="UTF-8" standalone="no"?>
<svg
   height="210mm"
   viewBox="0 0 297 210"
   width="297mm"
   version="1.1"
   id="svg80"
   sodipodi:docname="schatzkiste.svg"
   inkscape:version="1.1 (c68e22c387, 2021-05-23)"
   xmlns:inkscape="http://www.inkscape.org/namespaces/inkscape"
   xmlns:sodipodi="http://sodipodi.sourceforge.net/DTD/sodipodi-0.dtd"
   xmlns="http://www.w3.org/2000/svg"
   xmlns:svg="http://www.w3.org/2000/svg"
   xmlns:rdf="http://www.w3.org/1999/02/22-rdf-syntax-ns#"
   xmlns:cc="http://creativecommons.org/ns#"
   xmlns:dc="http://purl.org/dc/elements/1.1/">
  <defs
     id="defs84" />
  <sodipodi:namedview
     id="namedview82"
     pagecolor="#ffffff"
     bordercolor="#666666"
     borderopacity="1.0"
     inkscape:pageshadow="2"
     inkscape:pageopacity="0.0"
     inkscape:pagecheckerboard="0"
     inkscape:document-units="mm"
     showgrid="false"
     inkscape:zoom="0.69920644"
     inkscape:cx="574.2224"
     inkscape:cy="496.99199"
     inkscape:window-width="1920"
     inkscape:window-height="1017"
     inkscape:window-x="-8"
     inkscape:window-y="-8"
     inkscape:window-maximized="1"
     inkscape:current-layer="svg80"
     showborder="false" />
  <!--
UniversalBox - Box with various options for different styles and lids

Created with Boxes.py (https://festi.info/boxes.py)
Creation date: 2021-07-06 12:35:04
Command line (remove spaces between dashes): boxes UniversalBox - -FingerJoint_angle=90.0 - -FingerJoint_style=rectangular - -FingerJoint_surroundingspaces=2.0 - -FingerJoint_edge_width=1.0 - -FingerJoint_finger=2.0 - -FingerJoint_play=0.0 - -FingerJoint_space=2.0 - -FingerJoint_width=1.0 - -Stackable_angle=60 - -Stackable_height=2.0 - -Stackable_holedistance=1.0 - -Stackable_width=4.0 - -Hinge_grip_percentage=0 - -Hinge_outset=0 - -Hinge_outset=1 - -Hinge_pinwidth=0.5 - -Hinge_style=outset - -Hinge_axle=2 - -Hinge_grip_length=0 - -Hinge_hingestrength=1 - -CabinetHinge_bore=3.2 - -CabinetHinge_eyes_per_hinge=5 - -CabinetHinge_hinges=2 - -CabinetHinge_style=inside - -CabinetHinge_eye=1.5 - -CabinetHinge_play=0.05 - -CabinetHinge_spacing=2.0 - -Lid_angle=90.0 - -Lid_hole_width=0 - -Lid_second_pin=0 - -Lid_second_pin=1 - -Lid_spring=both - -Lid_style=rectangular - -Lid_surroundingspaces=2.0 - -Lid_edge_width=1.0 - -Lid_finger=3.0 - -Lid_play=0.05 - -Lid_space=2.0 - -Lid_width=1.0 - -Click_angle=5.0 - -Click_bottom_radius=0.1 - -Click_depth=3.0 - -RoundedTriangleEdge_height=150.0 - -RoundedTriangleEdge_r_hole=2.0 - -RoundedTriangleEdge_radius=30.0 - -RoundedTriangleEdge_outset=1 - -Flex_stretch=1.05 - -Flex_connection=1.0 - -Flex_distance=0.5 - -Flex_width=5.0 - -top_edge=e - -bottom_edge=h - -x=180.0 - -y=50 - -h=50 - -outside=0 '- -vertical_edges=finger joints' - -lid=flat - -thickness=6.0 - -format=svg - -tabs=0.0 - -debug=0 - -labels=0 - -labels=1 - -reference=100 - -burn=0.1
Url: http://www.festi.info/UniversalBox?FingerJoint_angle=90.0&FingerJoint_style=rectangular&FingerJoint_surroundingspaces=2.0&FingerJoint_edge_width=1.0&FingerJoint_finger=2.0&FingerJoint_play=0.0&FingerJoint_space=2.0&FingerJoint_width=1.0&Stackable_angle=60&Stackable_height=2.0&Stackable_holedistance=1.0&Stackable_width=4.0&Hinge_grip_percentage=0&Hinge_outset=0&Hinge_outset=1&Hinge_pinwidth=0.5&Hinge_style=outset&Hinge_axle=2&Hinge_grip_length=0&Hinge_hingestrength=1&CabinetHinge_bore=3.2&CabinetHinge_eyes_per_hinge=5&CabinetHinge_hinges=2&CabinetHinge_style=inside&CabinetHinge_eye=1.5&CabinetHinge_play=0.05&CabinetHinge_spacing=2.0&Lid_angle=90.0&Lid_hole_width=0&Lid_second_pin=0&Lid_second_pin=1&Lid_spring=both&Lid_style=rectangular&Lid_surroundingspaces=2.0&Lid_edge_width=1.0&Lid_finger=3.0&Lid_play=0.05&Lid_space=2.0&Lid_width=1.0&Click_angle=5.0&Click_bottom_radius=0.1&Click_depth=3.0&RoundedTriangleEdge_height=150.0&RoundedTriangleEdge_r_hole=2.0&RoundedTriangleEdge_radius=30.0&RoundedTriangleEdge_outset=1&Flex_stretch=1.05&Flex_connection=1.0&Flex_distance=0.5&Flex_width=5.0&top_edge=e&bottom_edge=h&x=180.0&y=50&h=50&outside=0&vertical_edges=finger+joints&lid=flat&thickness=6.0&format=svg&tabs=0.0&debug=0&labels=0&labels=1&reference=100&burn=0.1&render=1
SettingsUrl: http://www.festi.info/UniversalBox?FingerJoint_angle=90.0&FingerJoint_style=rectangular&FingerJoint_surroundingspaces=2.0&FingerJoint_edge_width=1.0&FingerJoint_finger=2.0&FingerJoint_play=0.0&FingerJoint_space=2.0&FingerJoint_width=1.0&Stackable_angle=60&Stackable_height=2.0&Stackable_holedistance=1.0&Stackable_width=4.0&Hinge_grip_percentage=0&Hinge_outset=0&Hinge_outset=1&Hinge_pinwidth=0.5&Hinge_style=outset&Hinge_axle=2&Hinge_grip_length=0&Hinge_hingestrength=1&CabinetHinge_bore=3.2&CabinetHinge_eyes_per_hinge=5&CabinetHinge_hinges=2&CabinetHinge_style=inside&CabinetHinge_eye=1.5&CabinetHinge_play=0.05&CabinetHinge_spacing=2.0&Lid_angle=90.0&Lid_hole_width=0&Lid_second_pin=0&Lid_second_pin=1&Lid_spring=both&Lid_style=rectangular&Lid_surroundingspaces=2.0&Lid_edge_width=1.0&Lid_finger=3.0&Lid_play=0.05&Lid_space=2.0&Lid_width=1.0&Click_angle=5.0&Click_bottom_radius=0.1&Click_depth=3.0&RoundedTriangleEdge_height=150.0&RoundedTriangleEdge_r_hole=2.0&RoundedTriangleEdge_radius=30.0&RoundedTriangleEdge_outset=1&Flex_stretch=1.05&Flex_connection=1.0&Flex_distance=0.5&Flex_width=5.0&top_edge=e&bottom_edge=h&x=180.0&y=50&h=50&outside=0&vertical_edges=finger+joints&lid=flat&thickness=6.0&format=svg&tabs=0.0&debug=0&labels=0&labels=1&reference=100&burn=0.1
-->
  <path
     id="path48"
     style="fill:#000000;fill-opacity:0;stroke:#ffb800;stroke-width:0.755906;stroke-linecap:round;stroke-linejoin:round;stroke-miterlimit:4;stroke-dasharray:none;stroke-opacity:1"
     d="M 19.375 279.73047 C 19.167126 279.73047 18.996094 279.89951 18.996094 280.10742 L 18.996094 329.24219 C 18.996094 329.45006 19.167125 329.61914 19.375 329.61914 L 41.673828 329.61914 L 41.673828 374.21875 L 19.375 374.21875 C 19.167126 374.21875 18.996094 374.38779 18.996094 374.5957 L 18.996094 419.94922 C 18.996094 420.15709 19.167125 420.32813 19.375 420.32812 L 41.673828 420.32812 L 41.673828 464.92578 L 19.375 464.92578 C 19.167126 464.92578 18.996094 465.09662 18.996094 465.30469 L 18.996094 514.4375 C 18.996094 514.64537 19.167125 514.81641 19.375 514.81641 L 42.050781 514.81641 L 63.822266 514.81641 L 87.783203 490.85547 L 87.783203 469.46289 L 132.38086 469.46289 L 132.38086 492.14062 L 178.49219 492.14062 L 178.49219 486.39062 L 178.49219 469.46289 L 223.0918 469.46289 L 223.0918 486.39062 L 223.0918 492.14062 L 269.20312 492.14062 L 269.20312 469.46289 L 313.79883 469.46289 L 313.79883 486.39062 L 313.79883 492.14062 L 359.91016 492.14062 L 359.91016 486.39062 L 359.91016 469.46289 L 404.50781 469.46289 L 404.50781 486.39062 L 404.50781 492.14062 L 450.61914 492.14062 L 450.61914 486.39062 L 450.61914 469.46289 L 495.2168 469.46289 L 495.2168 486.39062 L 495.2168 492.14062 L 541.32812 492.14062 L 541.32812 486.39062 L 541.32812 469.46289 L 585.92578 469.46289 L 585.92578 486.39062 L 585.92578 492.14062 L 632.03711 492.14062 L 632.03711 469.46289 L 676.63477 469.46289 L 676.63477 491.38281 L 676.375 491.38281 L 699.80859 514.81641 L 722.36719 514.81641 L 745.04297 514.81641 C 745.25084 514.81641 745.42188 514.64522 745.42188 514.4375 L 745.42188 465.30469 C 745.42188 465.09681 745.25065 464.92578 745.04297 464.92578 L 722.74414 464.92578 L 722.74414 420.32812 L 745.04297 420.32812 C 745.25084 420.32812 745.42188 420.15732 745.42188 419.94922 L 745.42188 374.5957 C 745.42188 374.38783 745.25065 374.21875 745.04297 374.21875 L 722.74414 374.21875 L 722.74414 329.61914 L 745.04297 329.61914 C 745.25084 329.61914 745.42188 329.45006 745.42188 329.24219 L 745.42188 280.10742 C 745.42188 279.89955 745.25065 279.73047 745.04297 279.73047 L 722.36719 279.73047 L 42.050781 279.73047 L 19.375 279.73047 z "
     transform="scale(0.26458333)" />
  <title
     id="title2">UniversalBox</title>
  <metadata
     id="metadata4">
    <rdf:RDF>
      <cc:Work>
        <dc:title>UniversalBox</dc:title>
        <dc:date>2021-07-06 12:35:04</dc:date>
        <dc:source>http://www.festi.info/UniversalBox?FingerJoint_angle=90.0&amp;FingerJoint_style=rectangular&amp;FingerJoint_surroundingspaces=2.0&amp;FingerJoint_edge_width=1.0&amp;FingerJoint_finger=2.0&amp;FingerJoint_play=0.0&amp;FingerJoint_space=2.0&amp;FingerJoint_width=1.0&amp;Stackable_angle=60&amp;Stackable_height=2.0&amp;Stackable_holedistance=1.0&amp;Stackable_width=4.0&amp;Hinge_grip_percentage=0&amp;Hinge_outset=0&amp;Hinge_outset=1&amp;Hinge_pinwidth=0.5&amp;Hinge_style=outset&amp;Hinge_axle=2&amp;Hinge_grip_length=0&amp;Hinge_hingestrength=1&amp;CabinetHinge_bore=3.2&amp;CabinetHinge_eyes_per_hinge=5&amp;CabinetHinge_hinges=2&amp;CabinetHinge_style=inside&amp;CabinetHinge_eye=1.5&amp;CabinetHinge_play=0.05&amp;CabinetHinge_spacing=2.0&amp;Lid_angle=90.0&amp;Lid_hole_width=0&amp;Lid_second_pin=0&amp;Lid_second_pin=1&amp;Lid_spring=both&amp;Lid_style=rectangular&amp;Lid_surroundingspaces=2.0&amp;Lid_edge_width=1.0&amp;Lid_finger=3.0&amp;Lid_play=0.05&amp;Lid_space=2.0&amp;Lid_width=1.0&amp;Click_angle=5.0&amp;Click_bottom_radius=0.1&amp;Click_depth=3.0&amp;RoundedTriangleEdge_height=150.0&amp;RoundedTriangleEdge_r_hole=2.0&amp;RoundedTriangleEdge_radius=30.0&amp;RoundedTriangleEdge_outset=1&amp;Flex_stretch=1.05&amp;Flex_connection=1.0&amp;Flex_distance=0.5&amp;Flex_width=5.0&amp;top_edge=e&amp;bottom_edge=h&amp;x=180.0&amp;y=50&amp;h=50&amp;outside=0&amp;vertical_edges=finger+joints&amp;lid=flat&amp;thickness=6.0&amp;format=svg&amp;tabs=0.0&amp;debug=0&amp;labels=0&amp;labels=1&amp;reference=100&amp;burn=0.1&amp;render=1</dc:source>
        <dc:description>Box with various options for different styles and lids

Created with Boxes.py (https://festi.info/boxes.py)
Command line: boxes UniversalBox --FingerJoint_angle=90.0 --FingerJoint_style=rectangular --FingerJoint_surroundingspaces=2.0 --FingerJoint_edge_width=1.0 --FingerJoint_finger=2.0 --FingerJoint_play=0.0 --FingerJoint_space=2.0 --FingerJoint_width=1.0 --Stackable_angle=60 --Stackable_height=2.0 --Stackable_holedistance=1.0 --Stackable_width=4.0 --Hinge_grip_percentage=0 --Hinge_outset=0 --Hinge_outset=1 --Hinge_pinwidth=0.5 --Hinge_style=outset --Hinge_axle=2 --Hinge_grip_length=0 --Hinge_hingestrength=1 --CabinetHinge_bore=3.2 --CabinetHinge_eyes_per_hinge=5 --CabinetHinge_hinges=2 --CabinetHinge_style=inside --CabinetHinge_eye=1.5 --CabinetHinge_play=0.05 --CabinetHinge_spacing=2.0 --Lid_angle=90.0 --Lid_hole_width=0 --Lid_second_pin=0 --Lid_second_pin=1 --Lid_spring=both --Lid_style=rectangular --Lid_surroundingspaces=2.0 --Lid_edge_width=1.0 --Lid_finger=3.0 --Lid_play=0.05 --Lid_space=2.0 --Lid_width=1.0 --Click_angle=5.0 --Click_bottom_radius=0.1 --Click_depth=3.0 --RoundedTriangleEdge_height=150.0 --RoundedTriangleEdge_r_hole=2.0 --RoundedTriangleEdge_radius=30.0 --RoundedTriangleEdge_outset=1 --Flex_stretch=1.05 --Flex_connection=1.0 --Flex_distance=0.5 --Flex_width=5.0 --top_edge=e --bottom_edge=h --x=180.0 --y=50 --h=50 --outside=0 '--vertical_edges=finger joints' --lid=flat --thickness=6.0 --format=svg --tabs=0.0 --debug=0 --labels=0 --labels=1 --reference=100 --burn=0.1
Url: http://www.festi.info/UniversalBox?FingerJoint_angle=90.0&amp;FingerJoint_style=rectangular&amp;FingerJoint_surroundingspaces=2.0&amp;FingerJoint_edge_width=1.0&amp;FingerJoint_finger=2.0&amp;FingerJoint_play=0.0&amp;FingerJoint_space=2.0&amp;FingerJoint_width=1.0&amp;Stackable_angle=60&amp;Stackable_height=2.0&amp;Stackable_holedistance=1.0&amp;Stackable_width=4.0&amp;Hinge_grip_percentage=0&amp;Hinge_outset=0&amp;Hinge_outset=1&amp;Hinge_pinwidth=0.5&amp;Hinge_style=outset&amp;Hinge_axle=2&amp;Hinge_grip_length=0&amp;Hinge_hingestrength=1&amp;CabinetHinge_bore=3.2&amp;CabinetHinge_eyes_per_hinge=5&amp;CabinetHinge_hinges=2&amp;CabinetHinge_style=inside&amp;CabinetHinge_eye=1.5&amp;CabinetHinge_play=0.05&amp;CabinetHinge_spacing=2.0&amp;Lid_angle=90.0&amp;Lid_hole_width=0&amp;Lid_second_pin=0&amp;Lid_second_pin=1&amp;Lid_spring=both&amp;Lid_style=rectangular&amp;Lid_surroundingspaces=2.0&amp;Lid_edge_width=1.0&amp;Lid_finger=3.0&amp;Lid_play=0.05&amp;Lid_space=2.0&amp;Lid_width=1.0&amp;Click_angle=5.0&amp;Click_bottom_radius=0.1&amp;Click_depth=3.0&amp;RoundedTriangleEdge_height=150.0&amp;RoundedTriangleEdge_r_hole=2.0&amp;RoundedTriangleEdge_radius=30.0&amp;RoundedTriangleEdge_outset=1&amp;Flex_stretch=1.05&amp;Flex_connection=1.0&amp;Flex_distance=0.5&amp;Flex_width=5.0&amp;top_edge=e&amp;bottom_edge=h&amp;x=180.0&amp;y=50&amp;h=50&amp;outside=0&amp;vertical_edges=finger+joints&amp;lid=flat&amp;thickness=6.0&amp;format=svg&amp;tabs=0.0&amp;debug=0&amp;labels=0&amp;labels=1&amp;reference=100&amp;burn=0.1&amp;render=1
SettingsUrl: http://www.festi.info/UniversalBox?FingerJoint_angle=90.0&amp;FingerJoint_style=rectangular&amp;FingerJoint_surroundingspaces=2.0&amp;FingerJoint_edge_width=1.0&amp;FingerJoint_finger=2.0&amp;FingerJoint_play=0.0&amp;FingerJoint_space=2.0&amp;FingerJoint_width=1.0&amp;Stackable_angle=60&amp;Stackable_height=2.0&amp;Stackable_holedistance=1.0&amp;Stackable_width=4.0&amp;Hinge_grip_percentage=0&amp;Hinge_outset=0&amp;Hinge_outset=1&amp;Hinge_pinwidth=0.5&amp;Hinge_style=outset&amp;Hinge_axle=2&amp;Hinge_grip_length=0&amp;Hinge_hingestrength=1&amp;CabinetHinge_bore=3.2&amp;CabinetHinge_eyes_per_hinge=5&amp;CabinetHinge_hinges=2&amp;CabinetHinge_style=inside&amp;CabinetHinge_eye=1.5&amp;CabinetHinge_play=0.05&amp;CabinetHinge_spacing=2.0&amp;Lid_angle=90.0&amp;Lid_hole_width=0&amp;Lid_second_pin=0&amp;Lid_second_pin=1&amp;Lid_spring=both&amp;Lid_style=rectangular&amp;Lid_surroundingspaces=2.0&amp;Lid_edge_width=1.0&amp;Lid_finger=3.0&amp;Lid_play=0.05&amp;Lid_space=2.0&amp;Lid_width=1.0&amp;Click_angle=5.0&amp;Click_bottom_radius=0.1&amp;Click_depth=3.0&amp;RoundedTriangleEdge_height=150.0&amp;RoundedTriangleEdge_r_hole=2.0&amp;RoundedTriangleEdge_radius=30.0&amp;RoundedTriangleEdge_outset=1&amp;Flex_stretch=1.05&amp;Flex_connection=1.0&amp;Flex_distance=0.5&amp;Flex_width=5.0&amp;top_edge=e&amp;bottom_edge=h&amp;x=180.0&amp;y=50&amp;h=50&amp;outside=0&amp;vertical_edges=finger+joints&amp;lid=flat&amp;thickness=6.0&amp;format=svg&amp;tabs=0.0&amp;debug=0&amp;labels=0&amp;labels=1&amp;reference=100&amp;burn=0.1
</dc:description>
      </cc:Work>
    </rdf:RDF>
  </metadata>
  <text
     alignment-baseline="hanging"
     font-size="4px"
     style="font-style:normal;font-weight:normal;font-family:sans-serif;fill:#ff0000;stroke-linecap:round;stroke-linejoin:round"
     text-anchor="middle"
     id="text46"
     x="106.1"
     y="169.60001" />
  <g
     id="p-3"
     style="fill:none;stroke:#ffb800;stroke-width:0.2;stroke-linecap:round;stroke-linejoin:round;stroke-miterlimit:4;stroke-dasharray:none;stroke-opacity:1"
     transform="translate(-10.653871,140.95205)">
    <text
       alignment-baseline="hanging"
       font-size="4px"
       style="font-style:normal;font-weight:normal;font-family:sans-serif;fill:#ff0000;stroke:#ffb800;stroke-width:0.2;stroke-miterlimit:4;stroke-dasharray:none;stroke-opacity:1"
       text-anchor="middle"
       transform="translate(106.1,104.4)"
       id="text51" />
    <path
       d="M 16.1,131.4 H 28 c 0.1,0 0,-0.1 0,0 v 5.9 c 0,0.055 0.045,0.1 0.1,0.1 h 12 c 0.055,0 0.1,-0.045 0.1,-0.1 v -5.9 c 0,-0.1 -0.1,0 0,0 H 52 c 0.1,0 0,-0.1 0,0 v 5.9 c 0,0.055 0.045,0.1 0.1,0.1 h 12 c 0.055,0 0.1,-0.045 0.1,-0.1 v -5.9 c 0,-0.1 -0.1,0 0,0 H 76 c 0.1,0 0,-0.1 0,0 v 5.9 c 0,0.055 0.045,0.1 0.1,0.1 h 12 c 0.055,0 0.1,-0.045 0.1,-0.1 v -5.9 c 0,-0.1 -0.1,0 0,0 H 100 c 0.1,0 0,-0.1 0,0 v 5.9 c 0,0.055 0.045,0.1 0.1,0.1 h 12 c 0.055,0 0.1,-0.045 0.1,-0.1 v -5.9 c 0,-0.1 -0.1,0 0,0 H 124 c 0.1,0 0,-0.1 0,0 v 5.9 c 0,0.055 0.045,0.1 0.1,0.1 h 12 c 0.055,0 0.1,-0.045 0.1,-0.1 v -5.9 c 0,-0.1 -0.1,0 0,0 H 148 c 0.1,0 0,-0.1 0,0 v 5.9 c 0,0.055 0.045,0.1 0.1,0.1 h 12 c 0.055,0 0.1,-0.045 0.1,-0.1 v -5.9 c 0,-0.1 -0.1,0 0,0 H 172 c 0.1,0 0,-0.1 0,0 v 5.9 c 0,0.055 0.045,0.1 0.1,0.1 h 12 c 0.055,0 0.1,-0.045 0.1,-0.1 v -5.9 c 0,-0.1 -0.1,0 0,0 h 11.9 c 0.055,0 0.1,-0.045 0.1,-0.1 v -18.9 c 0,-0.1 -0.1,0 0,0 h 5.9 c 0.055,0 0.1,-0.045 0.1,-0.1 v -12 c 0,-0.055 -0.045,-0.1 -0.1,-0.1 h -5.9 c -0.1,0 0,0.1 0,0 V 81.3 c 0,-0.055 -0.045,-0.1 -0.1,-0.1 h -11.9 c -0.1,0 0,0.1 0,0 v -5.9 c 0,-0.055 -0.045,-0.1 -0.1,-0.1 h -12 c -0.055,0 -0.1,0.045 -0.1,0.1 v 5.9 c 0,0.1 0.1,0 0,0 h -11.8 c -0.1,0 0,0.1 0,0 v -5.9 c 0,-0.055 -0.045,-0.1 -0.1,-0.1 h -12 c -0.055,0 -0.1,0.045 -0.1,0.1 v 5.9 c 0,0.1 0.1,0 0,0 h -11.8 c -0.1,0 0,0.1 0,0 v -5.9 c 0,-0.055 -0.045,-0.1 -0.1,-0.1 h -12 c -0.055,0 -0.1,0.045 -0.1,0.1 v 5.9 c 0,0.1 0.1,0 0,0 h -11.8 c -0.1,0 0,0.1 0,0 v -5.9 c 0,-0.055 -0.045,-0.1 -0.1,-0.1 h -12 c -0.055,0 -0.1,0.045 -0.1,0.1 v 5.9 c 0,0.1 0.1,0 0,0 H 88.2 c -0.1,0 0,0.1 0,0 v -5.9 c 0,-0.055 -0.045,-0.1 -0.1,-0.1 h -12 c -0.055,0 -0.1,0.045 -0.1,0.1 v 5.9 c 0,0.1 0.1,0 0,0 H 64.2 c -0.1,0 0,0.1 0,0 v -5.9 c 0,-0.055 -0.045,-0.1 -0.1,-0.1 h -12 c -0.055,0 -0.1,0.045 -0.1,0.1 v 5.9 c 0,0.1 0.1,0 0,0 H 40.2 c -0.1,0 0,0.1 0,0 v -5.9 c 0,-0.055 -0.045,-0.1 -0.1,-0.1 h -12 c -0.055,0 -0.1,0.045 -0.1,0.1 v 5.9 c 0,0.1 0.1,0 0,0 H 16.1 c -0.055,0 -0.1,0.045 -0.1,0.1 v 18.9 c 0,0.1 0.1,0 0,0 h -5.9 c -0.055,0 -0.1,0.045 -0.1,0.1 v 12 c 0,0.055 0.045,0.1 0.1,0.1 H 16 c 0.1,0 0,-0.1 0,0 v 18.9 c 0,0.055 0.045,0.1 0.1,0.1"
       stroke="rgb(0,0,0)"
       stroke-width="0.20"
       id="path53"
       style="stroke:#ffb800;stroke-width:0.2;stroke-miterlimit:4;stroke-dasharray:none;stroke-opacity:1" />
  </g>
  <g
     id="p-5"
     style="fill:none;stroke:#ffb800;stroke-width:0.2;stroke-linecap:round;stroke-linejoin:round;stroke-miterlimit:4;stroke-dasharray:none;stroke-opacity:1"
     transform="translate(-188.17407,-5.101066)">
    <text
       alignment-baseline="hanging"
       font-size="4px"
       style="font-style:normal;font-weight:normal;font-family:sans-serif;fill:#ff0000;stroke:#ffb800;stroke-width:0.2;stroke-miterlimit:4;stroke-dasharray:none;stroke-opacity:1"
       text-anchor="middle"
       transform="translate(289.3,39.2)"
       id="text61" />
    <path
       d="m 199.3,72.2 h 180 6 c 0.055,0 0.1,-0.045 0.1,-0.1 v -6 -50 -6 c 0,-0.055 -0.045,-0.1 -0.1,-0.1 h -6 -180 -6 c -0.055,0 -0.1,0.045 -0.1,0.1 v 6 50 6 c 0,0.055 0.045,0.1 0.1,0.1 h 6"
       stroke="#000000"
       stroke-width="0.2"
       id="path63"
       style="stroke:#ffb800;stroke-width:0.2;stroke-miterlimit:4;stroke-dasharray:none;stroke-opacity:1" />
  </g>
  <text
     alignment-baseline="hanging"
     font-size="4px"
     style="font-style:normal;font-weight:normal;font-family:sans-serif;fill:#ff0000;stroke-linecap:round;stroke-linejoin:round"
     text-anchor="middle"
     id="text75"
     x="236.3"
     y="169.60001" />
  <g
     id="g94233"
     transform="translate(2.6458334,61.70467)"
     style="stroke:#ffb800;stroke-opacity:1">
    <path
       id="path77"
       style="fill:none;stroke:#ffb800;stroke-width:0.2;stroke-linecap:round;stroke-linejoin:round;stroke-miterlimit:4;stroke-dasharray:none;stroke-opacity:1"
       d="m 206.25353,12.307269 c -0.055,0 -0.0997,0.0447 -0.0997,0.0997 v 12.899993 h -5.8999 c -0.055,0 -0.10026,0.0453 -0.10026,0.10025 v 11.99978 c 0,0.055 0.0453,0.10025 0.10026,0.10025 h 5.8999 v 11.7998 h -5.8999 c -0.055,0 -0.10026,0.0447 -0.10026,0.0997 v 12.00031 c 0,0.055 0.0453,0.0997 0.10026,0.0997 h 5.8999 v 12.89999 c 0,0.055 0.0447,0.10025 0.0997,0.10025 h 8.29303 l 10.69806,-6.17637 0.0656,-0.006 c 0.003,-0.009 0.0147,-0.0176 0.0434,-0.0176 v -5.79964 c -0.0625,0 -0.0469,-0.0396 -0.0264,-0.0444 0.0123,-0.003 0.0264,0.007 0.0264,0.0444 h 11.80031 c 0,-0.1 0.1,0 0,0 v 5.76037 l 10.80657,6.23941 h 8.29304 c 0.055,0 0.10025,-0.0452 0.10025,-0.10025 v -12.90005 h 5.89991 c 0.055,0 0.10025,-0.0447 0.10025,-0.0997 v -12.00031 c 0,-0.055 -0.0453,-0.0997 -0.10025,-0.0997 h -5.89991 v -11.7998 h 5.89991 c 0.055,0 0.10025,-0.0452 0.10025,-0.10025 v -11.99979 c 0,-0.055 -0.0453,-0.10025 -0.10025,-0.10025 h -5.89991 V 12.407069 c 0,-0.055 -0.0453,-0.0997 -0.10025,-0.0997 z m 19.10013,55.999683 c 0,0.005 -5.3e-4,0.01 -0.001,0.0139 0.005,-2.7e-4 7.9e-4,-0.009 0.001,-0.0139 z"
       sodipodi:nodetypes="sscssssccsssscsscccccscccccsscssssccsssscsssccc" />
    <path
       id="path43806"
       style="fill:none;stroke:#ffb800;stroke-width:0.2;stroke-linecap:round;stroke-linejoin:round;stroke-miterlimit:4;stroke-dasharray:none;stroke-opacity:1"
       d="m 206.25353,81.420453 c -0.055,0 -0.0997,0.0447 -0.0997,0.0997 v 12.89998 h -5.8999 c -0.055,0 -0.10026,0.0453 -0.10026,0.10025 v 11.999827 c 0,0.055 0.0453,0.10025 0.10026,0.10025 h 5.8999 v 11.79981 h -5.8999 c -0.055,0 -0.10026,0.0447 -0.10026,0.0997 v 12.0003 c 0,0.055 0.0453,0.0997 0.10026,0.0997 h 5.8999 v 12.89999 c 0,0.055 0.0447,0.10025 0.0997,0.10025 h 8.29303 l 10.69806,-6.17637 0.0656,-0.006 c 0.003,-0.009 0.0147,-0.0176 0.0434,-0.0176 v -5.79969 c -0.0625,0 -0.0469,-0.0396 -0.0264,-0.0444 0.0123,-0.003 0.0264,0.007 0.0264,0.0444 h 11.80031 c 0,-0.1 0.1,0 0,0 v 5.76037 l 10.80657,6.23941 h 8.29304 c 0.055,0 0.10025,-0.0453 0.10025,-0.10025 v -12.89999 h 5.89991 c 0.055,0 0.10025,-0.0447 0.10025,-0.0997 v -12.0003 c 0,-0.055 -0.0453,-0.0997 -0.10025,-0.0997 h -5.89991 v -11.79981 h 5.89991 c 0.055,0 0.10025,-0.0453 0.10025,-0.10025 V 94.520493 c 0,-0.055 -0.0453,-0.10025 -0.10025,-0.10025 h -5.89991 v -12.89998 c 0,-0.055 -0.0453,-0.0997 -0.10025,-0.0997 z m 19.10013,55.999727 c 0,0.005 -5.3e-4,0.01 -0.001,0.014 0.005,-2.7e-4 7.9e-4,-0.009 0.001,-0.014 z"
       sodipodi:nodetypes="sscssssccsssscsscccccscccccsscssssccsssscsssccc" />
  </g>
  <text
     xml:space="preserve"
     style="font-weight:bold;font-size:5.64444px;line-height:1.25;font-family:Hind;-inkscape-font-specification:'Hind Bold';stroke-width:0.264583"
     x="-203.48009"
     y="276.38953"
     id="text96043"
     transform="rotate(-90)"><tspan
       sodipodi:role="line"
       id="tspan96041"
       style="font-size:5.64444px;stroke-width:0.264583"
       x="-203.48009"
       y="276.38953">FabLab Oberland e.V.</tspan><tspan
       sodipodi:role="line"
       style="font-weight:normal;font-size:5.64444px;stroke-width:0.264583"
       x="-203.48009"
       y="283.44507"
       id="tspan99519">Schatzkisten lasern</tspan><tspan
       sodipodi:role="line"
       style="font-weight:normal;font-size:5.64444px;stroke-width:0.264583"
       x="-203.48009"
       y="290.50064"
       id="tspan102965">Version 1.2.0.</tspan></text>
  <text
     xml:space="preserve"
     style="font-weight:bold;font-size:10.5833px;line-height:1.25;font-family:Hind;-inkscape-font-specification:'Hind Bold';stroke-width:0.264583"
     x="203.88182"
     y="16.669821"
     id="text111507"><tspan
       sodipodi:role="line"
       id="tspan111505"
       style="stroke-width:0.264583"
       x="203.88182"
       y="16.669821">Name:</tspan></text>
  <text
     xml:space="preserve"
     style="font-weight:bold;font-size:10.5833px;line-height:1.25;font-family:Hind;-inkscape-font-specification:'Hind Bold';stroke-width:0.264583"
     x="203.88182"
     y="47.663113"
     id="text1927"><tspan
       sodipodi:role="line"
       id="tspan1925"
       style="stroke-width:0.264583"
       x="203.88182"
       y="47.663113">Klasse:</tspan></text>
  <path
     id="path3893"
     style="fill:#000000;fill-opacity:0;stroke:#ffb800;stroke-width:0.2;stroke-linecap:round;stroke-linejoin:round;stroke-miterlimit:4;stroke-dasharray:none;stroke-opacity:1"
     d="m 5.126302,143.12528 c -0.055,0 -0.1002522,0.0447 -0.1002522,0.0997 v 13.00025 c 0,0.055 0.045252,0.0997 0.1002522,0.0997 H 11.0262 v 11.80031 H 5.126302 c -0.055,0 -0.1002522,0.0447 -0.1002522,0.0997 v 11.99978 c 0,0.055 0.045252,0.10026 0.1002522,0.10025 H 11.0262 v 11.7998 H 5.126302 c -0.055,0 -0.1002522,0.0452 -0.1002522,0.10025 v 12.99973 c 0,0.055 0.045252,0.10025 0.1002522,0.10025 h 5.999634 5.760372 l 6.339664,-6.33966 v -5.66012 h 11.799797 v 6.00014 h 12.200289 v -1.52135 -4.47879 h 11.800313 v 4.47879 1.52135 h 12.200287 v -6.00014 h 11.799281 v 4.47879 1.52135 h 12.20029 v -1.52135 -4.47879 h 11.799791 v 4.47879 1.52135 h 12.20029 v -1.52135 -4.47879 h 11.7998 v 4.47879 1.52135 h 12.20029 v -1.52135 -4.47879 h 11.79979 v 4.47879 1.52135 h 12.20029 v -6.00014 h 11.7998 v 5.79964 h -0.0687 l 6.20014,6.20014 h 5.96863 5.99963 c 0.055,0 0.10025,-0.0453 0.10025,-0.10025 v -12.99973 c 0,-0.055 -0.0453,-0.10025 -0.10025,-0.10025 h -5.8999 v -11.7998 h 5.8999 c 0.055,0 0.10025,-0.0452 0.10025,-0.10025 v -11.99978 c 0,-0.055 -0.0453,-0.0997 -0.10025,-0.0997 h -5.8999 v -11.80031 h 5.8999 c 0.055,0 0.10025,-0.0447 0.10025,-0.0997 v -13.00025 c 0,-0.055 -0.0453,-0.0997 -0.10025,-0.0997 H 191.12632 11.125936 Z" />
</svg>
